<svg xmlns="http://www.w3.org/2000/svg" width="512" height="512" viewBox="0 0 512 512" role="img" aria-labelledby="title desc">
  <title id="title">Radiant Exports Logo Placeholder</title>
  <desc id="desc">Replace this file with the final Radiant Exports logo.</desc>
  <rect width="512" height="512" rx="72" fill="#0e2a47"/>
  <path d="M94 326h324v38H94zM116 148h138c43 0 72 26 72 65 0 29-15 51-40 61l75 90h-58l-66-80h-73v80h-48V148zm48 42v53h86c18 0 29-10 29-27 0-16-11-26-29-26h-86z" fill="#ffffff"/>
  <path d="M342 148h82v42h-82v44h70v41h-70v89h-48V148h48z" fill="#2d7d92"/>
</svg>
